<?xml version="1.0" standalone="no"?><!DOCTYPE svg PUBLIC "-//W3C//DTD SVG 1.1//EN" "http://www.w3.org/Graphics/SVG/1.1/DTD/svg11.dtd"><svg t="1599225590451" class="icon" viewBox="0 0 1024 1024" version="1.1" xmlns="http://www.w3.org/2000/svg" p-id="7136" xmlns:xlink="http://www.w3.org/1999/xlink" width="16" height="16"><defs><style type="text/css"></style></defs><path d="M359.822222 732.70303h250.311111v152.177778H359.822222z" fill="#F6C244" p-id="7137"></path><path d="M593.583838 107.571717H888.242424v152.177778H593.583838z" fill="#29C287" p-id="7138"></path><path d="M296.080808 107.571717h334.739394v152.177778H296.080808z" fill="#F6C244" p-id="7139"></path><path d="M138.343434 310.432323h333.187879v152.177778H138.343434z" fill="#E3E3E5" p-id="7140"></path><path d="M587.377778 519.757576h300.735353v152.177778H587.377778z" fill="#29C287" p-id="7141"></path><path d="M138.343434 107.571717h221.478788v152.177778H138.343434z" fill="#E3E3E5" p-id="7142"></path><path d="M712.791919 310.432323h175.321212v152.177778H712.791919z" fill="#29C287" p-id="7143"></path><path d="M137.050505 519.757576h243.458586v152.177778H137.050505z" fill="#E3E3E5" p-id="7144"></path><path d="M548.20202 732.70303h339.911111v152.177778H548.20202z" fill="#29C287" p-id="7145"></path><path d="M137.050505 732.70303h243.458586v152.177778H137.050505z" fill="#E3E3E5" p-id="7146"></path><path d="M462.222222 310.432323h250.311111v152.177778H462.222222zM380.509091 519.757576h250.311111v152.177778H380.509091z" fill="#F6C244" p-id="7147"></path><path d="M139.636364 156.573737h395.636363v66.585859H139.636364zM139.636364 352.969697h497.777777v67.232323H139.636364zM138.343434 562.553535h465.325253v66.585859H138.343434zM138.343434 775.49899h333.187879v66.585858H138.343434z" fill="#6E72DF" p-id="7148"></path></svg>