<?xml version="1.0" standalone="no"?><!DOCTYPE svg PUBLIC "-//W3C//DTD SVG 1.1//EN" "http://www.w3.org/Graphics/SVG/1.1/DTD/svg11.dtd"><svg t="1599225873618" class="icon" viewBox="0 0 1024 1024" version="1.1" xmlns="http://www.w3.org/2000/svg" p-id="8811" xmlns:xlink="http://www.w3.org/1999/xlink" width="16" height="16"><defs><style type="text/css"></style></defs><path d="M0 307.2h1024v614.4a102.4 102.4 0 0 1-102.4 102.4H102.4A102.4 102.4 0 0 1 0 921.6V307.2z" fill="#F9BE26" p-id="8812"></path><path d="M61.44 307.2h901.12v624.64a30.72 30.72 0 0 1-30.72 30.72H92.16a30.72 30.72 0 0 1-30.72-30.72V307.2z" fill="#FFFFFF" p-id="8813"></path><path d="M102.4 0h819.2a102.4 102.4 0 0 1 102.4 102.4v204.8H0V102.4A102.4 102.4 0 0 1 102.4 0z" fill="#0EC08E" p-id="8814"></path><path d="M153.6 419.84h235.52v122.88H153.6z" fill="#C2C0C1" p-id="8815"></path><path d="M614.4 563.2h235.52v122.88H614.4z" fill="#7BC56E" p-id="8816"></path><path d="M389.12 686.08h235.52v122.88H389.12z" fill="#F07D51" p-id="8817"></path><path d="M204.8 112.64a40.96 40.96 0 1 1-40.96 40.96 40.96 40.96 0 0 1 40.96-40.96z m614.4 0a40.96 40.96 0 1 1-40.96 40.96 40.96 40.96 0 0 1 40.96-40.96z" fill="#11503F" p-id="8818"></path><path d="M204.8 133.12m20.48 0l573.44 0q20.48 0 20.48 20.48l0 10.24q0 20.48-20.48 20.48l-573.44 0q-20.48 0-20.48-20.48l0-10.24q0-20.48 20.48-20.48Z" fill="#FFFFFF" p-id="8819"></path></svg>