<?xml version="1.0" standalone="no"?><!DOCTYPE svg PUBLIC "-//W3C//DTD SVG 1.1//EN" "http://www.w3.org/Graphics/SVG/1.1/DTD/svg11.dtd"><svg t="1599558450541" class="icon" viewBox="0 0 1024 1024" version="1.1" xmlns="http://www.w3.org/2000/svg" p-id="5420" xmlns:xlink="http://www.w3.org/1999/xlink" width="16" height="16"><defs><style type="text/css"></style></defs><path d="M825.137 881.283a38.598 38.598 0 0 1 11.48 3.978l25.445-72.991a72.623 72.623 0 0 1-12.082-2.249l-24.843 71.262zM144.948 662.023a38.87 38.87 0 0 1-6.149 10.487l74.684 40.425a72.539 72.539 0 0 1 5.388-10.899l-73.923-40.013zM653.938 143.863l59.891 11.9a38.63 38.63 0 0 1 4.283-11.536l-64.089-12.734c0.142 1.859 0.237 3.731 0.237 5.627 0 2.275-0.118 4.521-0.322 6.743zM595.335 338.664v-130a73.159 73.159 0 0 1-13.971 1.353 73.44 73.44 0 0 1-10.328-0.742v129.113c3.416-0.22 6.857-0.343 10.328-0.343 4.709 0 9.366 0.217 13.971 0.619zM327.828 683.644a73.249 73.249 0 0 1 15.864 18.423l114.44-105.334a159.056 159.056 0 0 1-13.958-20.178L327.828 683.644zM820.193 685.867l-101.239-109.99a159.002 159.002 0 0 1-14.111 20.548l100.206 108.87a73.17 73.17 0 0 1 15.144-19.428z" fill="#809091" p-id="5421"></path><path d="M740.062 496.744c0-82.938-63.626-151.004-144.728-158.08a160.558 160.558 0 0 0-13.971-0.619c-3.471 0-6.912 0.124-10.328 0.343-82.832 5.323-148.371 74.179-148.371 158.355 0 29.099 7.839 56.364 21.509 79.811a159.056 159.056 0 0 0 13.958 20.178c29.098 35.817 73.488 58.71 123.232 58.71 49.885 0 94.386-23.024 123.479-59.017a159.002 159.002 0 0 0 14.111-20.548c13.427-23.294 21.109-50.316 21.109-79.133z" fill="#D73949" p-id="5422"></path><path d="M327.828 683.644c-12.628-10.493-28.853-16.808-46.556-16.808-26.463 0-49.63 14.102-62.402 35.2a72.73 72.73 0 0 0-5.388 10.899 72.673 72.673 0 0 0-5.107 26.798c0 40.26 32.637 72.897 72.897 72.897s72.897-32.637 72.897-72.897c0-13.784-3.829-26.673-10.477-37.666a73.249 73.249 0 0 0-15.864-18.423zM869.306 666.836c-18.921 0-36.156 7.211-49.113 19.031a73.202 73.202 0 0 0-15.144 19.427c-5.509 10.257-8.64 21.981-8.64 34.438 0 33.566 22.694 61.815 53.57 70.287a72.52 72.52 0 0 0 12.082 2.249c2.383 0.235 4.799 0.36 7.244 0.36 40.26 0 72.897-32.637 72.897-72.897 0-40.258-32.637-72.895-72.896-72.895zM595.335 208.664c31.421-6.101 55.627-32.373 58.603-64.801 0.204-2.222 0.322-4.468 0.322-6.743 0-1.896-0.095-3.768-0.237-5.627-2.876-37.627-34.295-67.27-72.659-67.27-40.26 0-72.897 32.637-72.897 72.897 0 36.752 27.203 67.137 62.569 72.155a73.43 73.43 0 0 0 10.328 0.742c4.78 0 9.448-0.474 13.971-1.353z" fill="#0CA294" p-id="5423"></path><path d="M713.085 163.341c0 21.472 17.406 38.878 38.878 38.878s38.878-17.406 38.878-38.878-17.406-38.878-38.878-38.878c-14.522 0-27.176 7.968-33.851 19.765a38.62 38.62 0 0 0-4.283 11.536 39.071 39.071 0 0 0-0.744 7.577zM147.628 647.841c0-21.472-17.407-38.878-38.878-38.878-21.472 0-38.878 17.406-38.878 38.878s17.406 38.878 38.878 38.878c12.106 0 22.918-5.534 30.049-14.21a38.845 38.845 0 0 0 6.149-10.487 38.763 38.763 0 0 0 2.68-14.181zM818.279 880.668c-21.472 0-38.878 17.406-38.878 38.878s17.406 38.878 38.878 38.878 38.878-17.406 38.878-38.878c0-14.84-8.317-27.733-20.541-34.285a38.626 38.626 0 0 0-11.48-3.978 39.008 39.008 0 0 0-6.857-0.615z" fill="#D97B24" p-id="5424"></path></svg>