<?xml version="1.0" standalone="no"?><!DOCTYPE svg PUBLIC "-//W3C//DTD SVG 1.1//EN" "http://www.w3.org/Graphics/SVG/1.1/DTD/svg11.dtd"><svg t="1599549162929" class="icon" viewBox="0 0 1024 1024" version="1.1" xmlns="http://www.w3.org/2000/svg" p-id="3579" xmlns:xlink="http://www.w3.org/1999/xlink" width="16" height="16"><defs><style type="text/css"></style></defs><path d="M53.894737 916.210526h53.894737V107.789474H53.894737v808.421052z m538.947368 0h53.894737V107.789474h-53.894737v808.421052z m323.368421-808.421052v808.421052h53.894737V107.789474h-53.894737z" fill="#444A5C" p-id="3580"></path><path d="M937.768421 436.547368c-118.568421-32.336842-301.810526-150.905263-312.589474-156.294736C323.368421 123.957895 107.789474 323.368421 97.010526 328.757895l-32.336842-37.726316s253.305263-231.747368 587.452632-53.894737c5.389474 0 188.631579 118.568421 296.421052 150.905263l-10.778947 48.505263zM781.473684 576.673684c-53.894737 0-118.568421-10.778947-172.463158-37.726316-242.526316-129.347368-512 10.778947-517.389473 10.778948l-21.557895-48.505263c10.778947-5.389474 296.421053-156.294737 565.894737-10.778948 129.347368 70.063158 296.421053 10.778947 296.421052 10.778948l16.168421 48.505263s-75.452632 26.947368-167.073684 26.947368zM689.852632 878.484211c-75.452632 0-140.126316-32.336842-194.021053-91.621053-172.463158-177.852632-388.042105 5.389474-398.821053 16.168421l-37.726315-37.726316s258.694737-231.747368 468.88421-10.778947c48.505263 48.505263 97.010526 70.063158 156.294737 75.452631 123.957895 0 237.136842-107.789474 237.136842-113.178947l37.726316 37.726316s-123.957895 123.957895-269.473684 123.957895z" fill="#444A5C" p-id="3581"></path></svg>