<?xml version="1.0" standalone="no"?><!DOCTYPE svg PUBLIC "-//W3C//DTD SVG 1.1//EN" "http://www.w3.org/Graphics/SVG/1.1/DTD/svg11.dtd"><svg t="1599548257487" class="icon" viewBox="0 0 1024 1024" version="1.1" xmlns="http://www.w3.org/2000/svg" p-id="2223" xmlns:xlink="http://www.w3.org/1999/xlink" width="16" height="16"><defs><style type="text/css"></style></defs><path d="M452.791082 99.632823a16.834262 16.834262 0 1 1-16.834263-16.834262 16.762012 16.762012 0 0 1 16.834263 16.834262zM883.184647 18.857264a16.834262 16.834262 0 1 1-16.762012-16.834263 16.762012 16.762012 0 0 1 16.762012 16.834263zM999.218232 116.394835a16.834262 16.834262 0 1 1-16.617512-16.762012 16.834262 16.834262 0 0 1 16.617512 16.762012z" fill="#5FB0E5" p-id="2224"></path><path d="M54.54879 201.722148m-27.45502 0a27.45502 27.45502 0 1 0 54.91004 0 27.45502 27.45502 0 1 0-54.91004 0Z" fill="#5FB0E5" p-id="2225"></path><path d="M233.295421 52.959289a34.102025 34.102025 0 1 1-34.102025-34.102025 34.102025 34.102025 0 0 1 34.102025 34.102025z" fill="#5FB0E5" p-id="2226"></path><path d="M595.990687 1020.242997v-150.13561c0-114.805334-109.45883-208.730403-243.265929-208.730403-133.734848 0-243.265928 93.925069-243.265928 208.730403v150.13561z" fill="#5FB0E5" p-id="2227"></path><path d="M128.027094 1020.242997h-37.136527v-150.20786a196.953644 196.953644 0 0 1 7.730755-54.47654l35.619276 10.259508a161.334368 161.334368 0 0 0-6.213504 44.217032z" fill="#0686D8" p-id="2228"></path><path d="M149.99111 788.464827l-32.295774-18.279263a232.50067 232.50067 0 0 1 49.130036-59.823044l24.420518 27.888521a196.375644 196.375644 0 0 0-41.25478 50.213786z" fill="#0686D8" p-id="2229"></path><path d="M224.480914 714.264023l-18.929513-31.934523a294.346716 294.346716 0 0 1 285.748959-5.057504l-17.701263 32.657024a261.328441 261.328441 0 0 0-249.118183 4.335003z" fill="#0686D8" p-id="2230"></path><path d="M228.599167 855.585127h37.136528v164.65787h-37.136528z" fill="#0686D8" p-id="2231"></path><path d="M441.664573 855.585127h37.136528v164.65787h-37.136528z" fill="#0686D8" p-id="2232"></path><path d="M343.982502 745.765046a45.517533 45.517533 0 0 1-45.517533-45.517533v-102.595075a39.087279 39.087279 0 0 1 39.087278-39.015029h12.93276a39.015029 39.015029 0 0 1 39.015028 39.015029v102.595075a45.517533 45.517533 0 0 1-45.517533 45.517533z" fill="#FFFFFF" p-id="2233"></path><path d="M343.982502 764.33331a64.085797 64.085797 0 0 1-64.013547-64.085797v-102.595075a57.800042 57.800042 0 0 1 57.800042-57.800043h12.93276a57.800042 57.800042 0 0 1 57.800042 57.800043v102.595075a64.158047 64.158047 0 0 1-64.519297 64.085797z m-6.430255-187.127637a20.519015 20.519015 0 0 0-20.519015 20.446765v102.595075a26.94927 26.94927 0 0 0 53.89854 0v-102.595075a20.446765 20.446765 0 0 0-20.446765-20.446765z" fill="#0686D8" p-id="2234"></path><path d="M347.739505 655.95823a173.400127 173.400127 0 0 1-173.400127-173.400127V365.657518c0-95.22557 77.885557-93.058068 173.400127-93.058068 95.15332 0 173.038877-2.167502 173.038876 93.058068v117.261836a173.400127 173.400127 0 0 1-173.038876 173.038876z" fill="#FFFFFF" p-id="2235"></path><path d="M347.739505 674.526494a191.82389 191.82389 0 0 1-191.607141-191.60714V365.657518h37.136528v117.261836a154.326113 154.326113 0 0 0 274.550201 97.031821l28.900021 23.409017a190.81239 190.81239 0 0 1-148.979609 71.166302z" fill="#0686D8" p-id="2236"></path><path d="M175.567629 439.208072a41.47153 41.47153 0 0 1-41.399281-41.399281V298.175968a62.062795 62.062795 0 0 1 62.062796-62.062795 51.008537 51.008537 0 0 1 51.008537-51.008537H498.525365a61.629295 61.629295 0 0 1 61.701545 61.629295v149.557609a38.364778 38.364778 0 0 1-40.74903 38.364778V335.890496S491.30036 382.34728 401.854794 382.20278a317.105482 317.105482 0 0 1-178.45763-53.537289A89.951316 89.951316 0 0 1 202.300148 356.192761a28.900021 28.900021 0 0 1-26.732519 7.586255z" fill="#D2E9F7" p-id="2237"></path><path d="M175.567629 439.208072V363.779016A28.900021 28.900021 0 0 0 202.300148 356.192761a89.951316 89.951316 0 0 0 21.097016-27.52727S365.585268 403.227545 450.11783 375.700275c-91.974317-39.520779-211.114655-63.580047-231.20017-182.214633a50.575037 50.575037 0 0 0-23.047767 42.627531 62.062795 62.062795 0 0 0-62.062795 62.062795v99.632823a41.47153 41.47153 0 0 0 41.760531 41.399281z" fill="#9ECFEF" opacity=".46" p-id="2238"></path><path d="M194.063642 457.776335H175.567629a60.039794 60.039794 0 0 1-59.967544-59.967544V298.175968a80.847809 80.847809 0 0 1 64.158047-78.969307 69.649051 69.649051 0 0 1 67.481549-52.670289h202.300148v37.064277h-202.300148a32.512524 32.512524 0 0 0-32.440274 32.512524v18.568264h-18.640513a43.350032 43.350032 0 0 0-43.350032 43.350031v99.777323a22.542017 22.542017 0 0 0 4.335003 13.36626v-72.250053l23.987018 7.225006h0.36125a13.22176 13.22176 0 0 0 8.670006-3.757003 74.923305 74.923305 0 0 0 16.545262-21.675016l33.813025 15.389261a109.24208 109.24208 0 0 1-25.793269 33.740775 50.575037 50.575037 0 0 1-20.519015 11.343258z" fill="#0686D8" p-id="2239"></path><path d="M418.472306 401.060044h-16.689762c-112.926833 0-209.525153-70.732802-213.643406-73.695054l22.108516-29.839272c0.867001 0.65025 91.107317 66.253299 191.60714 66.397799h11.415509a46.095534 46.095534 0 0 0 17.701263-1.950752L440.725323 397.375291a74.417555 74.417555 0 0 1-22.253017 3.684753z" fill="#0686D8" p-id="2240"></path><path d="M999.218232 580.167925h-225.275665V243.627178a90.457066 90.457066 0 0 1 90.384816-90.457066 90.457066 90.457066 0 0 1 90.384816 90.457066v292.973965a42.338531 42.338531 0 0 0 44.506033 43.566782z" fill="#9ECFEF" p-id="2241"></path><path d="M999.218232 598.736189h-243.843929V243.627178a108.95308 108.95308 0 1 1 217.90616 0v292.973965a23.770267 23.770267 0 0 0 25.937769 24.998518z m-206.707402-37.136528h148.618359a62.351796 62.351796 0 0 1-4.985253-25.215268V243.627178a71.816553 71.816553 0 1 0-143.633106 0z" fill="#0686D8" p-id="2242"></path><path d="M867.361885 390.150286V276.428702a177.30163 177.30163 0 0 0-176.795879-176.795879H658.920483a177.37388 177.37388 0 0 0-176.86813 176.795879V390.150286z" fill="#9ECFEF" p-id="2243"></path><path d="M867.361885 390.150286V276.428702a177.30163 177.30163 0 0 0-176.795879-176.795879H658.920483a177.37388 177.37388 0 0 0-176.86813 176.795879V390.150286z" fill="#9ECFEF" p-id="2244"></path><path d="M885.930149 408.718549H463.55634V276.428702a195.580893 195.580893 0 0 1 195.075142-195.075142h31.645524a195.580893 195.580893 0 0 1 195.075142 195.075142z m-385.309532-37.136527h348.245255V276.428702a158.444366 158.444366 0 0 0-158.299866-158.227615H658.920483a158.444366 158.444366 0 0 0-158.299866 158.227615z" fill="#0686D8" p-id="2245"></path><path d="M906.810414 1020.242997V895.900656a229.104918 229.104918 0 0 0-228.454667-228.237917A229.104918 229.104918 0 0 0 449.90108 895.900656v124.125591z" fill="#D2E9F7" p-id="2246"></path><path d="M925.378678 1020.242997h-37.136527V895.900656a209.886404 209.886404 0 1 0-419.772808 0v124.125591H431.332816V895.900656a247.022931 247.022931 0 0 1 494.045862 0z" fill="#0686D8" p-id="2247"></path><path d="M549.750653 880.294645h37.136527v139.948352h-37.136527z" fill="#0686D8" p-id="2248"></path><path d="M782.901573 880.294645h37.136528v139.948352h-37.136528z" fill="#0686D8" p-id="2249"></path><path d="M674.237494 759.998307a49.708036 49.708036 0 0 1-49.780287-49.780287V605.021943a49.780286 49.780286 0 0 1 49.780287-49.852536 49.852537 49.852537 0 0 1 49.852536 49.852536V710.21802a49.780286 49.780286 0 0 1-49.852536 49.780287z" fill="#FFFFFF" p-id="2250"></path><path d="M674.237494 778.56657a68.4208 68.4208 0 0 1-68.34855-68.34855V605.021943a68.34855 68.34855 0 1 1 136.6971 0V710.21802a68.4208 68.4208 0 0 1-68.34855 68.34855z m0-204.8289A31.284273 31.284273 0 0 0 643.025471 605.021943V710.21802a31.284273 31.284273 0 1 0 62.496296 0V605.021943a31.284273 31.284273 0 0 0-31.284273-31.284273z" fill="#0686D8" p-id="2251"></path><path d="M866.422635 337.985748v126.148592a192.763141 192.763141 0 0 1-192.185141 192.185141 192.763141 192.763141 0 0 1-192.185141-192.185141V337.985748c95.08107 0 169.715374-80.558809 190.52339-105.485078a7.225005 7.225005 0 0 1 11.632258 0c21.024765 24.854018 96.09257 105.485077 182.214634 105.485078z" fill="#FFFFFF" p-id="2252"></path><path d="M674.237494 674.887744a210.897904 210.897904 0 0 1-210.681154-210.753404v-144.500106h18.568263c86.700064 0 156.782615-75.645805 176.145629-98.838072a26.226769 26.226769 0 0 1 40.09878 0c19.652014 23.264517 89.734566 98.982572 168.053623 98.982572h18.568263v144.500106a210.970155 210.970155 0 0 1-210.753404 210.608904z m-173.400127-319.272984v108.37508a173.400127 173.400127 0 0 0 347.233754 0v-108.37508c-76.874056-8.959007-141.610104-70.805052-169.426374-101.150074-28.033021 30.417272-93.997319 92.841318-178.02413 101.150074z" fill="#0686D8" p-id="2253"></path><path d="M839.834615 181.925633l-49.057786-56.066041a19.218514 19.218514 0 0 1 1.734001-27.02152 19.218514 19.218514 0 0 1 27.02152 1.806252l49.130036 56.066041a19.218514 19.218514 0 0 1-1.806251 27.02152 19.218514 19.218514 0 0 1-27.02152-1.806252z" fill="#5FB0E5" p-id="2254"></path><path d="M854.284626 206.996402a37.497777 37.497777 0 0 1-28.394271-12.86051l-49.130036-56.066041a37.786778 37.786778 0 0 1 3.540253-53.248289 37.859028 37.859028 0 0 1 53.248289 3.612503l49.057785 56.066041a37.642278 37.642278 0 0 1-28.32202 62.496296z m-48.696536-93.925069l48.190785 56.860791a0.65025 0.65025 0 0 0 0.867001 0z" fill="#0686D8" p-id="2255"></path></svg>