<?xml version="1.0" standalone="no"?><!DOCTYPE svg PUBLIC "-//W3C//DTD SVG 1.1//EN" "http://www.w3.org/Graphics/SVG/1.1/DTD/svg11.dtd"><svg t="1599547664722" class="icon" viewBox="0 0 1210 1024" version="1.1" xmlns="http://www.w3.org/2000/svg" p-id="1835" xmlns:xlink="http://www.w3.org/1999/xlink" width="18.90625" height="16"><defs><style type="text/css"></style></defs><path d="M477.05961249 407.59867177c78.65212209 57.49095599 134.27040822-70.97417628 241.66800795-70.97417701 107.39759973 0 182.21074855 72.84684616 212.82889606 86.33006717C964.14096739 436.34414941 1038.95411622 467.05593044 1038.95411622 467.05593044v7.67794508-26.8728085S824.15891676 261.81134593 718.72762044 263.7776486c-107.39759973 3.83897254-163.01588587 161.04958246-241.66800795 80.52479196C323.59434158 190.93080245 162.54475911 386.53113921 162.54475911 386.53113921v15.35589016c11.51691761-5.80527593 166.8548584-103.55862719 314.51485338 5.7116424z m561.8008702 189.88869363s-23.03383596 13.38958748-53.65198272 32.5844509c28.74547764-9.55061494 53.65198273-7.67794508 53.65198272-7.67794507v-44.10136853 19.1948627z m-450.56429794 42.13506584c-74.81314955-99.71965464-170.69383093 80.52479123-395.0396446 11.51691762 174.53280348 226.31211708 320.22649579-126.59246242 395.0396446 5.71164241 88.20273631 161.04958246 289.51471476 105.43129632 329.87074426 30.7117803l5.71164241-11.51691761c-9.55061494 9.55061494-19.19486342 19.19486342-26.87280849 28.74547765-38.38972611 57.58458953-220.50684113 53.74561628-308.70957818-65.16890037z m0 0" fill="#29C287" p-id="1836"></path><path d="M588.29618476 639.62243124c88.20273631 118.91451734 270.41348558 122.75348989 310.67588156 67.13520376 7.67794508-9.55061494 15.35589016-19.19486342 26.87280849-28.74547765 19.19486342-17.22856002 40.26239598-34.55075357 59.45725867-47.94034105 28.74547764-19.19486342 53.65198273-32.58445017 53.65198274-32.5844509v-17.22856002c-15.35589016 3.83897254-99.71965464 26.87280849-136.14307736 57.490956-40.26239598 34.55075357-222.47314453 32.58445017-310.67588085-42.22869865-78.65212209-65.16890108-180.24444588 86.33006717-425.75142636 24.9065051v-199.43930857s161.04958246-44.10136852 314.5148541 28.74547763c78.65212209 36.42342272 134.27040822-44.10136852 241.5743737-46.06767119 107.39759973 0 182.21074855 46.06767119 212.82889606 55.61828613 28.74547764 7.67794508 92.04170885 15.35589016 103.55862718 15.35589016V465.18326057s-74.81314955-28.74547764-107.39759973-44.10136779c-32.58445017-13.38958748-107.39759973-88.20273631-212.82889606-86.33006717-107.39759973 1.87266986-163.01588587 130.43143567-241.66800721 70.9741763-147.56636218-109.3639024-302.90430224-11.51691761-312.54855072-3.83897254v235.86273201c11.51691761 3.83897254 21.06753256 7.67794508 30.71178031 11.51691761 222.47314453 70.97417628 318.35382665-109.3639024 393.16697548-9.64424775z m0 0" fill="#FF7272" p-id="1837"></path><path d="M933.42918636 459.37798536c-32.58445017-9.55061494-107.39759973-55.61828614-212.82889606-55.61828613-107.39759973 0-163.01588587 82.49109462-241.57437441 46.06767119-153.46527092-72.84684616-314.6084869-28.74547764-314.60848692-28.74547763v197.47300589c245.41334696 61.32992855 347.09930428-90.16903971 425.75142566-24.90650583 88.20273631 74.81314955 270.41348558 78.65212209 310.67588083 42.22869866 36.42342272-32.58445017 120.78718721-53.65198273 136.14307809-57.49095528h1.96630267V474.73387552h-1.96630267c-11.51691761 0-74.81314955-7.67794508-103.55862719-15.35589015z m0 1e-8" fill="#FFC107" p-id="1838"></path><path d="M933.42918636 499.64038063c-32.58445017-3.83897254-107.39759973-24.9065051-212.82889606-24.90650511-105.43129632 0-163.01588587 36.42342272-241.57437441 19.19486342-153.46527092-32.58445017-314.6084869-13.38958748-314.60848692-13.38958749v90.16903971c245.41334696 26.87280849 347.09930428-40.26239598 425.75142566-11.51691834 88.20273631 32.58445017 270.41348558 34.55075357 310.67588083 19.19486341 36.42342272-13.38958748 120.78718721-24.9065051 136.14307809-24.90650509h1.96630267V507.31832642h-1.96630267c-11.51691761-1.87266986-74.81314955-3.83897254-103.55862719-7.6779458z m0 0" fill="#706EE7" p-id="1839"></path></svg>