<?xml version="1.0" standalone="no"?><!DOCTYPE svg PUBLIC "-//W3C//DTD SVG 1.1//EN" "http://www.w3.org/Graphics/SVG/1.1/DTD/svg11.dtd"><svg t="1599215048720" class="icon" viewBox="0 0 1024 1024" version="1.1" xmlns="http://www.w3.org/2000/svg" p-id="6060" xmlns:xlink="http://www.w3.org/1999/xlink" width="16" height="16"><defs><style type="text/css"></style></defs><path d="M393.431579 393.431579H53.894737V53.894737h339.536842v339.536842zM107.789474 339.536842h231.747368V107.789474H107.789474v231.747368z" fill="#444A5C" p-id="6061"></path><path d="M684.463158 393.431579H339.536842V53.894737h339.536842v339.536842z m-291.031579-53.894737h231.747368V107.789474H393.431579v231.747368z" fill="#444A5C" p-id="6062"></path><path d="M970.105263 393.431579h-339.536842V53.894737H970.105263v339.536842z m-285.642105-53.894737H916.210526V107.789474h-231.747368v231.747368zM393.431579 684.463158H53.894737V339.536842h339.536842v344.926316z m-285.642105-53.894737h231.747368V393.431579H107.789474v237.136842z" fill="#444A5C" p-id="6063"></path><path d="M684.463158 684.463158H339.536842V339.536842h339.536842v344.926316z m-291.031579-53.894737h231.747368V393.431579H393.431579v237.136842z" fill="#444A5C" p-id="6064"></path><path d="M970.105263 684.463158h-339.536842V339.536842H970.105263v344.926316z m-285.642105-53.894737H916.210526V393.431579h-231.747368v237.136842zM393.431579 970.105263H53.894737v-339.536842h339.536842V970.105263zM107.789474 916.210526h231.747368v-231.747368H107.789474V916.210526z" fill="#444A5C" p-id="6065"></path><path d="M684.463158 970.105263H339.536842v-339.536842h339.536842V970.105263z m-291.031579-53.894737h231.747368v-231.747368H393.431579V916.210526z" fill="#444A5C" p-id="6066"></path><path d="M970.105263 970.105263h-339.536842v-339.536842H970.105263V970.105263z m-285.642105-53.894737H916.210526v-231.747368h-231.747368V916.210526z" fill="#444A5C" p-id="6067"></path></svg>