<?xml version="1.0" standalone="no"?><!DOCTYPE svg PUBLIC "-//W3C//DTD SVG 1.1//EN" "http://www.w3.org/Graphics/SVG/1.1/DTD/svg11.dtd"><svg t="1599209550384" class="icon" viewBox="0 0 1024 1024" version="1.1" xmlns="http://www.w3.org/2000/svg" p-id="7975" width="32" height="32" xmlns:xlink="http://www.w3.org/1999/xlink"><defs><style type="text/css"></style></defs><path d="M384 832H128a32 32 0 0 1 0-64h224v-96a32 32 0 0 1 32-32h224v-96a32 32 0 0 1 32-32h256a32 32 0 0 1 0 64h-224v96a32 32 0 0 1-32 32h-224v96a32 32 0 0 1-32 32z" fill="#3BD5B3" p-id="7976"></path><path d="M384 512H128a32 32 0 0 1 0-64h224v-96a32 32 0 0 1 32-32h224V224a32 32 0 0 1 32-32h256a32 32 0 0 1 0 64h-224v96a32 32 0 0 1-32 32h-224v96a32 32 0 0 1-32 32z" fill="#4A8BFE" p-id="7977"></path></svg>