<?xml version="1.0" standalone="no"?><!DOCTYPE svg PUBLIC "-//W3C//DTD SVG 1.1//EN" "http://www.w3.org/Graphics/SVG/1.1/DTD/svg11.dtd"><svg t="1599550410899" class="icon" viewBox="0 0 1024 1024" version="1.1" xmlns="http://www.w3.org/2000/svg" p-id="5115" xmlns:xlink="http://www.w3.org/1999/xlink" width="16" height="16"><defs><style type="text/css"></style></defs><path d="M829.339 695.802L923.5 930.638 718.16 879.02 685.601 661.2zM749.132 495.793l61.715 153.948-131.713-31.764-22.803-152.701zM639.654 656.549l33.581 224.058-156.785 43.678V691.717zM641.583 301.911c0 33.354-14.521 89.51-37.551 150.885-38.119 101.309-99.38 216.912-157.012 268.417-19.173 17.13-38.005 27.228-55.363 27.228-23.71 0-51.278-21.556-79.073-55.477-17.471-21.215-35.055-47.194-51.959-75.896-64.211-108.683-118.893-254.803-118.893-315.157 0-123.317 112.086-223.719 249.925-223.719 137.84 0 249.926 100.402 249.926 223.719zM510.21 546.731c49.577-97.338 81.569-193.429 81.569-244.82 0-98.813-89.737-179.134-200.122-179.134-110.384 0-200.122 80.321-200.122 179.134 0 48.442 34.035 146.688 84.746 244.479 61.602 118.666 106.073 157.012 115.376 157.579 19.06 0.001 65.914-54 118.553-157.238z" fill="#97C5EA" p-id="5116"></path><path d="M591.779 301.911c0 51.392-31.992 147.482-81.569 244.82-52.64 103.237-99.493 157.238-118.553 157.238-9.303-0.567-53.774-38.913-115.376-157.579-50.711-97.792-84.746-196.037-84.746-244.479 0-98.813 89.737-179.134 200.122-179.134 110.385 0 200.122 80.321 200.122 179.134z m-47.307 3.744c0-75.442-68.522-136.818-152.814-136.818-84.292 0-152.814 61.375-152.814 136.818 0 75.443 68.522 136.932 152.814 136.932 84.292-0.001 152.814-61.489 152.814-136.932z" fill="#97C5EA" p-id="5117"></path><path d="M504.878 683.776c8.168-11.118 16.336-23.257 24.619-36.53l1.134-1.815 102.897-29.27-20.421-136.591 0.567-1.248c2.609-6.466 4.992-12.82 7.374-19.173 4.879-12.819 9.416-25.412 13.5-37.778l1.815-5.445 138.066 45.379c6.239 2.042 11.117 6.466 13.387 12.025l192.521 480.337c2.836 7.147 1.134 14.975-4.651 20.534-5.673 5.332-14.521 7.601-22.463 5.672l-255.03-64.098-188.437 52.413-0.34 0.34c-3.176 2.042-7.147 3.177-11.798 3.517-1.361 0.341-5.332 0.454-8.282-0.113-3.857-0.227-7.828-1.361-11.004-3.403l-0.34-0.34-188.437-52.413-255.03 64.098a26.402 26.402 0 0 1-6.013 0.681c-6.24 0-12.252-2.382-16.45-6.353-5.786-5.56-7.601-13.387-4.651-20.534l177.772-443.354 5.786 12.706c6.013 13.047 12.479 26.32 19.059 39.479l1.021 2.042-35.169 87.582 69.543-24.845 2.496 4.197a658.209 658.209 0 0 0 16.223 25.753l3.404 5.332-111.859 40.16-91.439 227.918 205.227-51.618 26.434-177.092 8.508 10.097c9.53 11.118 18.719 20.761 27.908 28.589l1.475 1.929-22.009 138.065 153.949 43.678V723.823l4.311-1.476c10.324-10.777 23.71-23.483 34.375-38.005l0.452-0.566z m134.776-27.227L516.45 691.717v232.568l156.785-43.678-33.581-224.058zM923.5 930.638l-94.161-234.836L685.601 661.2l32.56 217.819L923.5 930.638zM810.847 649.741l-61.715-153.948-92.801-30.517 22.803 152.701 131.713 31.764zM391.658 168.837c84.292 0 152.814 61.375 152.814 136.818 0 75.443-68.522 136.932-152.814 136.932-84.292 0-152.814-61.489-152.814-136.932 0-75.443 68.522-136.818 152.814-136.818zM499.32 305.655c0-53.207-48.215-96.43-107.662-96.43-59.333 0-107.662 43.224-107.662 96.43 0 53.207 48.329 96.431 107.662 96.431 59.446-0.001 107.662-43.224 107.662-96.431z" fill="#97C5EA" p-id="5118"></path><path d="M447.021 721.214c57.631-51.506 118.893-167.108 157.012-268.417l17.017 6.353c-2.382 6.353-4.765 12.707-7.374 19.173l-0.567 1.248 20.421 136.591-102.897 29.27-1.134 1.815c-8.282 13.273-16.45 25.412-24.619 36.53l-0.454 0.566c-10.664 14.521-24.051 27.228-34.375 38.005l-4.311 1.476-18.719-2.61zM391.658 209.225c59.447 0 107.662 43.224 107.662 96.43 0 53.207-48.215 96.431-107.662 96.431-59.333 0-107.662-43.224-107.662-96.431s48.329-96.43 107.662-96.43z" fill="#97C5EA" p-id="5119"></path><path d="M295.908 701.928l16.677-8.963c27.794 33.921 55.362 55.477 79.073 55.477 17.358 0 36.19-10.098 55.363-27.228l18.719 2.609v200.462l-153.949-43.678L333.8 742.542l-1.475-1.929c-9.189-7.828-18.378-17.471-27.908-28.589l-8.509-10.096z" fill="#97C5EA" p-id="5120"></path><path d="M260.626 617.068c16.904 28.702 34.488 54.682 51.959 75.896l-16.677 8.963-26.433 177.093-205.227 51.618 91.439-227.916 111.859-40.16-3.404-5.332a659.398 659.398 0 0 1-16.223-25.753l-2.496-4.197 15.203-10.212z" fill="#97C5EA" p-id="5121"></path><path d="M863.373 661.767l94.161 234.837-205.34-51.619-32.559-217.819zM783.166 461.759l61.715 153.948-131.712-31.765-22.804-152.7zM673.688 622.515l33.582 224.058-156.786 43.678V657.683z" fill="#FFFFFF" p-id="5122"></path><path d="M675.617 267.877c0 33.354-14.521 89.51-37.551 150.885-38.119 101.309-99.381 216.912-157.012 268.417-19.173 17.13-38.005 27.228-55.362 27.228-23.711 0-51.278-21.556-79.073-55.477-17.471-21.215-35.055-47.194-51.959-75.896-64.211-108.683-118.893-254.803-118.893-315.157 0-123.317 112.086-223.719 249.925-223.719S675.617 144.56 675.617 267.877z m-131.372 244.82c49.576-97.338 81.568-193.428 81.568-244.82 0-98.813-89.736-179.134-200.121-179.134S225.57 169.064 225.57 267.877c0 48.442 34.034 146.688 84.745 244.479 61.602 118.666 106.074 157.012 115.376 157.579 19.06 0.001 65.914-54 118.554-157.238z" fill="#024687" p-id="5123"></path><path d="M625.813 267.877c0 51.392-31.992 147.482-81.568 244.82-52.64 103.238-99.494 157.239-118.553 157.239-9.303-0.567-53.774-38.913-115.376-157.579-50.711-97.792-84.745-196.038-84.745-244.479 0-98.813 89.737-179.134 200.122-179.134s200.12 80.32 200.12 179.133z m-47.307 3.744c0-75.442-68.522-136.818-152.813-136.818-84.292 0-152.814 61.375-152.814 136.818 0 75.443 68.522 136.931 152.814 136.931 84.291 0 152.813-61.489 152.813-136.931z" fill="#FFFFFF" p-id="5124"></path><path d="M550.484 657.683v232.568l156.785-43.678-33.581-224.059-123.204 35.169z m-46.4 30.63c10.324-10.777 23.71-23.483 34.375-38.005l0.454-0.567c8.168-11.117 16.336-23.257 24.618-36.529l1.135-1.815 102.896-29.27-20.421-136.591 0.567-1.248c2.609-6.467 4.992-12.82 7.374-19.173 4.879-12.819 9.416-25.412 13.501-37.778l1.814-5.446 138.066 45.379c6.239 2.042 11.117 6.466 13.387 12.025l192.521 480.337c2.836 7.146 1.135 14.975-4.651 20.534-5.673 5.332-14.521 7.601-22.463 5.672l-255.03-64.098-188.437 52.413-0.34 0.34c-3.177 2.042-7.147 3.177-11.799 3.517-1.361 0.341-5.332 0.454-8.282-0.113-3.856-0.227-7.827-1.361-11.004-3.403a109.47 109.47 0 0 0-0.341-0.34l-188.436-52.413L68.559 945.84a26.402 26.402 0 0 1-6.013 0.681c-6.24 0-12.252-2.382-16.45-6.353-5.786-5.56-7.601-13.388-4.651-20.534L219.217 476.28l5.786 12.706c6.013 13.046 12.479 26.32 19.059 39.479l1.021 2.042-35.168 87.582 69.543-24.845 2.496 4.197a659.398 659.398 0 0 0 16.223 25.753l3.403 5.332-111.859 40.16-91.439 227.918 205.227-51.618 26.433-177.092 8.509 10.097c9.529 11.118 18.719 20.761 27.908 28.589l1.475 1.929-22.009 138.065 153.948 43.678V689.789l4.311-1.476z m453.45 208.291l-94.161-234.837-143.738-34.601 32.56 217.819 205.339 51.619zM844.881 615.707l-61.715-153.948-92.801-30.517 22.804 152.701 131.712 31.764zM425.692 134.803c84.292 0 152.813 61.375 152.813 136.818 0 75.443-68.522 136.931-152.813 136.931-84.292 0-152.814-61.488-152.814-136.931 0-75.443 68.522-136.818 152.814-136.818z m107.662 136.818c0-53.207-48.215-96.43-107.661-96.43-59.333 0-107.662 43.223-107.662 96.43s48.329 96.431 107.662 96.431c59.446-0.001 107.661-43.224 107.661-96.431z" fill="#024687" p-id="5125"></path><path d="M538.459 650.309c-10.664 14.521-24.051 27.228-34.375 38.005l-4.311 1.476-18.719-2.609c57.631-51.506 118.893-167.108 157.012-268.417l17.017 6.353c-2.382 6.353-4.765 12.706-7.374 19.173l-0.567 1.248 20.421 136.591-102.896 29.27-1.135 1.815c-8.282 13.272-16.45 25.412-24.618 36.529l-0.455 0.566zM425.692 175.19c59.446 0 107.661 43.223 107.661 96.43s-48.215 96.431-107.661 96.431c-59.333 0-107.662-43.224-107.662-96.431s48.329-96.43 107.662-96.43z" fill="#FFFFFF" p-id="5126"></path><path d="M346.619 658.931c27.795 33.921 55.362 55.477 79.073 55.477 17.357 0 36.189-10.098 55.362-27.228l18.719 2.609v200.462l-153.948-43.678 22.009-138.065-1.475-1.929c-9.189-7.828-18.378-17.471-27.908-28.589l-8.509-10.097 16.677-8.962z" fill="#FFFFFF" p-id="5127"></path><path d="M298.177 623.195a659.398 659.398 0 0 1-16.223-25.753l-2.496-4.197 15.202-10.211c16.904 28.702 34.488 54.682 51.959 75.896l-16.677 8.963-26.433 177.092-205.227 51.619 91.439-227.916 111.859-40.16-3.403-5.333z" fill="#FFFFFF" p-id="5128"></path></svg>