<?xml version="1.0" standalone="no"?><!DOCTYPE svg PUBLIC "-//W3C//DTD SVG 1.1//EN" "http://www.w3.org/Graphics/SVG/1.1/DTD/svg11.dtd"><svg t="1599229990124" class="icon" viewBox="0 0 1312 1024" version="1.1" xmlns="http://www.w3.org/2000/svg" p-id="8586" xmlns:xlink="http://www.w3.org/1999/xlink" width="20.5" height="16"><defs><style type="text/css"></style></defs><path d="M288.581818 8.378182H121.018182C55.854545 8.378182 3.723636 61.44 3.723636 125.672727v167.563637c0 65.163636 53.061818 117.294545 117.294546 117.294545h167.563636c65.163636 0 117.294545-53.061818 117.294546-117.294545v-167.563637C405.876364 61.44 352.814545 8.378182 288.581818 8.378182zM288.581818 526.894545H121.018182C55.854545 526.894545 3.723636 579.956364 3.723636 644.189091v167.563636c0 65.163636 53.061818 117.294545 117.294546 117.294546h167.563636c65.163636 0 117.294545-53.061818 117.294546-117.294546v-167.563636c0-64.232727-53.061818-117.294545-117.294546-117.294546z" fill="#6097FD" p-id="8587"></path><path d="M807.098182 8.378182h-167.563637c-65.163636 0-117.294545 53.061818-117.294545 117.294545v167.563637c0 65.163636 53.061818 117.294545 117.294545 117.294545h167.563637c65.163636 0 117.294545-53.061818 117.294545-117.294545v-167.563637C924.392727 61.44 871.330909 8.378182 807.098182 8.378182z" fill="#2767F4" p-id="8588"></path><path d="M807.098182 526.894545h-167.563637c-65.163636 0-117.294545 53.061818-117.294545 117.294546v167.563636c0 65.163636 53.061818 117.294545 117.294545 117.294546h167.563637c65.163636 0 117.294545-53.061818 117.294545-117.294546v-167.563636c0-64.232727-53.061818-117.294545-117.294545-117.294546z" fill="#6097FD" p-id="8589"></path><path d="M1312.581818 506.414545v370.501819c0 80.989091-66.094545 147.083636-147.083636 147.083636H921.6c-24.203636 0-48.407273-8.378182-67.025455-24.203636-57.716364-48.407273-181.527273-155.461818-203.86909-189.905455v-0.930909c-6.516364-10.24-11.170909-21.410909-11.17091-34.443636V553.890909c66.094545 0 120.087273 53.992727 120.087273 120.087273V763.345455h21.410909V239.243636c0-33.512727 26.996364-60.509091 60.509091-60.509091s60.509091 26.996364 60.509091 60.509091v255.069091h20.48v-85.643636c0-33.512727 26.996364-60.509091 60.509091-60.509091s60.509091 26.996364 60.509091 60.509091v86.574545h23.272727v-41.890909c0-30.72 25.134545-55.854545 55.854546-55.854545s55.854545 25.134545 55.854545 55.854545v42.821818h25.134546c4.654545-26.065455 26.996364-46.545455 54.923636-46.545454 28.858182 0.930909 53.992727 26.065455 53.992727 56.785454z" fill="#DFECFD" p-id="8590"></path></svg>