<?xml version="1.0" standalone="no"?><!DOCTYPE svg PUBLIC "-//W3C//DTD SVG 1.1//EN" "http://www.w3.org/Graphics/SVG/1.1/DTD/svg11.dtd"><svg t="1599210097031" class="icon" viewBox="0 0 1029 1024" version="1.1" xmlns="http://www.w3.org/2000/svg" p-id="2305" width="16.078125" height="16" xmlns:xlink="http://www.w3.org/1999/xlink"><defs><style type="text/css"></style></defs><path d="M474.250111 0l-0.437515 511.629783 0.182961 3.714898c0.127277 1.368228 0.318193 2.728501 0.564792 4.08082a38.413798 38.413798 0 0 0 8.233233 28.68506l2.688727 2.998965 347.824249 360.329217a510.587702 510.587702 0 0 1-320.59492 112.560621C229.536163 1023.991409 0 794.463201 0 511.287726 0 241.070643 209.060471 19.656346 474.250111 0z" fill="#FD6421" p-id="2306"></path><path d="M591.018828 549.749252l432.980536-0.079548a510.794527 510.794527 0 0 1-134.452269 309.283175L591.018828 549.717433l432.980536-0.079548-432.980536 0.079548v0.031819z" fill="#56C6A1" p-id="2307"></path><path d="M550.727695 472.834154L551.157255 0c252.461937 18.709723 454.052838 220.284714 472.818244 472.714832l-473.22394 0.095458L551.157255 0l-0.437515 472.818245v0.015909z" fill="#3EBDFF" p-id="2308"></path></svg>