<?xml version="1.0" standalone="no"?><!DOCTYPE svg PUBLIC "-//W3C//DTD SVG 1.1//EN" "http://www.w3.org/Graphics/SVG/1.1/DTD/svg11.dtd"><svg t="1599213766864" class="icon" viewBox="0 0 1024 1024" version="1.1" xmlns="http://www.w3.org/2000/svg" p-id="2605" xmlns:xlink="http://www.w3.org/1999/xlink" width="16" height="16"><defs><style type="text/css"></style></defs><path d="M512 256a256 256 0 1 0 256 256 256 256 0 0 0-256-256z m0 384a128 128 0 1 1 128-128 128 128 0 0 1-128 128z" fill="#3BD5B3" p-id="2606"></path><path d="M768 320l-153.6 115.84A128 128 0 0 1 640 512a128 128 0 0 1-37.44 90.56l135.68 135.68A320 320 0 0 0 768 320z" fill="#4A8BFE" p-id="2607"></path><path d="M602.56 602.56a128 128 0 0 1-181.12 0l-181.12 181.12a384 384 0 0 0 544 0z" fill="#3BD5B3" p-id="2608"></path><path d="M384 512a128 128 0 0 1 128-128V64a448 448 0 0 0-316.8 764.8l226.24-226.24A128 128 0 0 1 384 512z" fill="#4A8BFE" p-id="2609"></path></svg>