<?xml version="1.0" standalone="no"?><!DOCTYPE svg PUBLIC "-//W3C//DTD SVG 1.1//EN" "http://www.w3.org/Graphics/SVG/1.1/DTD/svg11.dtd"><svg t="1599210865268" class="icon" viewBox="0 0 1024 1024" version="1.1" xmlns="http://www.w3.org/2000/svg" p-id="9941" xmlns:xlink="http://www.w3.org/1999/xlink" width="16" height="16"><defs><style type="text/css"></style></defs><path d="M128 469.44l256-256 256 256 256-256V896H128V469.44z" fill="#3BD5B3" p-id="9942"></path><path d="M896 928H128a32 32 0 0 1-32-32V469.44a32 32 0 0 1 9.28-21.44l256-256a32 32 0 0 1 45.44 0L640 424 873.28 192a32 32 0 0 1 54.72 21.44V896a32 32 0 0 1-32 32zM160 864h704V290.56l-201.28 201.28a32 32 0 0 1-45.44 0L384 258.56l-224 224z" fill="#3BD5B3" p-id="9943"></path><path d="M128 693.44l256-256 256 256 256-256V896H128v-202.56z" fill="#4A8BFE" p-id="9944"></path><path d="M896 928H128a32 32 0 0 1-32-32v-202.56a32 32 0 0 1 9.28-21.44l256-256a32 32 0 0 1 45.44 0L640 648 873.28 416a32 32 0 0 1 54.72 22.72V896a32 32 0 0 1-32 32zM160 864h704V514.56l-201.28 201.28a32 32 0 0 1-45.44 0L384 482.56l-224 224z" fill="#4A8BFE" p-id="9945"></path></svg>