<?xml version="1.0" standalone="no"?><!DOCTYPE svg PUBLIC "-//W3C//DTD SVG 1.1//EN" "http://www.w3.org/Graphics/SVG/1.1/DTD/svg11.dtd"><svg t="1599210604710" class="icon" viewBox="0 0 1024 1024" version="1.1" xmlns="http://www.w3.org/2000/svg" p-id="9778" xmlns:xlink="http://www.w3.org/1999/xlink" width="16" height="16"><defs><style type="text/css"></style></defs><path d="M730.65 740.89H397.47V616H199.65v93.63H74.71v-20.77h104.11v-93.64h239.47v124.85h291.53v-72.83h145.77V532.8h93.71a10.41 10.41 0 0 1 10.41 10.41 10.41 10.41 0 0 1-10.41 10.41h-72.89v114.44H730.65z" fill="#0839FF" p-id="9779"></path><path d="M813.94 511.83H470.35v-265.4H210.06v93.63H74.71v-20.82h114.53v-93.63h301.94V491h301.94V251.59h156.17A10.41 10.41 0 0 1 959.71 262a10.41 10.41 0 0 1-10.41 10.41H813.94z" fill="#979797" p-id="9780"></path><path d="M949.3 855.43H85.12V158.16a10.41 10.41 0 0 0-20.82 0v718.09h885a10.4 10.4 0 0 0 10.4-10.4 10.4 10.4 0 0 0-10.4-10.42z" fill="#979797" p-id="9781"></path></svg>