<?xml version="1.0" standalone="no"?><!DOCTYPE svg PUBLIC "-//W3C//DTD SVG 1.1//EN" "http://www.w3.org/Graphics/SVG/1.1/DTD/svg11.dtd"><svg t="1599549478637" class="icon" viewBox="0 0 1024 1024" version="1.1" xmlns="http://www.w3.org/2000/svg" p-id="3776" xmlns:xlink="http://www.w3.org/1999/xlink" width="16" height="16"><defs><style type="text/css"></style></defs><path d="M512 810.666667a300.181333 300.181333 0 0 1-60.928-6.250667l-26.090667 125.312a426.794667 426.794667 0 0 0 323.669334-62.762667l-70.997334-106.496A297.173333 297.173333 0 0 1 512 810.666667zM512 213.333333V85.333333A425.344 425.344 0 0 0 210.304 210.304L300.8 300.8A297.642667 297.642667 0 0 1 512 213.333333zM810.666667 512c0 8.362667-0.576 16.597333-1.258667 24.789333l127.466667 10.666667c0.96-11.712 1.792-23.466667 1.792-35.413333a424.768 424.768 0 0 0-117.205334-293.162667l-92.842666 87.936A297.408 297.408 0 0 1 810.666667 512zM213.333333 512c0-4.266667 0.448-8.277333 0.618667-12.416l-127.722667-5.333333C85.994667 500.181333 85.333333 506.005333 85.333333 512a424.533333 424.533333 0 0 0 71.701334 236.650667l106.496-70.997334A297.173333 297.173333 0 0 1 213.333333 512z" fill="#4352D4" p-id="3777"></path><path d="M512 704a194.133333 194.133333 0 0 1-39.168-4.010667l-21.76 104.426667A300.181333 300.181333 0 0 0 512 810.666667a297.173333 297.173333 0 0 0 165.653333-50.197334l-59.157333-88.746666A190.997333 190.997333 0 0 1 512 704zM320 512c0-2.688 0.298667-5.312 0.405333-7.978667l-106.453333-4.437333c-0.170667 4.138667-0.618667 8.213333-0.618667 12.416a297.173333 297.173333 0 0 0 50.197334 165.653333l88.746666-59.157333A190.997333 190.997333 0 0 1 320 512zM512 320v-106.666667a297.642667 297.642667 0 0 0-211.2 87.466667l75.413333 75.413333A191.402667 191.402667 0 0 1 512 320zM728.618667 306.773333l-77.354667 73.301334A191.189333 191.189333 0 0 1 704 512c0 5.376-0.362667 10.666667-0.810667 15.936l106.218667 8.853333c0.682667-8.192 1.258667-16.426667 1.258667-24.789333a297.408 297.408 0 0 0-82.048-205.226667z" fill="#4352D4" opacity=".2" p-id="3778"></path><path d="M512 426.666667v-106.666667a191.402667 191.402667 0 0 0-135.765333 56.234667l75.434666 75.434666A84.992 84.992 0 0 1 512 426.666667zM512 597.333333a86.613333 86.613333 0 0 1-17.408-1.792l-21.76 104.533334A194.133333 194.133333 0 0 0 512 704a190.997333 190.997333 0 0 0 106.496-32.277333l-59.178667-88.746667A84.906667 84.906667 0 0 1 512 597.333333zM426.666667 512c0-1.216 0.298667-2.346667 0.362666-3.541333l-106.666666-4.437334c-0.106667 2.666667-0.405333 5.290667-0.405334 7.978667a190.997333 190.997333 0 0 0 32.277334 106.496l88.746666-59.178667A84.928 84.928 0 0 1 426.666667 512zM597.333333 512c0 2.410667-0.512 4.693333-0.704 7.061333l106.56 8.874667A187.52 187.52 0 0 0 704 512a191.189333 191.189333 0 0 0-52.736-131.925333l-77.461333 73.365333A84.778667 84.778667 0 0 1 597.333333 512z" fill="#4352D4" p-id="3779"></path><path d="M651.264 380.074667l77.354667-73.301334A297.578667 297.578667 0 0 0 512 213.333333v106.666667a191.296 191.296 0 0 1 139.264 60.074667z" fill="#4352D4" opacity=".2" p-id="3780"></path><path d="M512 320v106.666667a84.864 84.864 0 0 1 61.866667 26.773333l77.461333-73.365333A191.296 191.296 0 0 0 512 320zM451.669333 451.669333l-75.434666-75.434666a191.253333 191.253333 0 0 0-55.829334 127.786666l106.666667 4.437334a84.864 84.864 0 0 1 24.597333-56.789334zM559.317333 582.976l59.178667 88.746667a191.68 191.68 0 0 0 84.693333-143.786667l-106.56-8.874667a85.056 85.056 0 0 1-37.312 63.914667zM441.024 559.317333l-88.746667 59.178667a192.128 192.128 0 0 0 120.554667 81.493333l21.76-104.533333a85.461333 85.461333 0 0 1-53.568-36.138667z" fill="#4352D4" p-id="3781"></path></svg>